<svg height="512" viewBox="0 0 24 24" width="512" xmlns="http://www.w3.org/2000/svg">
    <path d="M23.25 16a.75.75 0 01-.75-.75V2.75c0-.69-.56-1.25-1.25-1.25H2.75c-.69 0-1.25.56-1.25 1.25v12.5a.75.75 0 01-1.5 0V2.75A2.75 2.75 0 012.75 0h18.5A2.75 2.75 0 0124 2.75v12.5c0 .41-.34.75-.75.75z"/>
    <path d="M8.25 16a.75.75 0 01-.66-.39L6.5 13.65v1.6a.75.75 0 01-1.5 0v-4.5a.75.75 0 011.4-.36l1.1 1.97v-1.61a.75.75 0 011.5 0v4.5a.75.75 0 01-.75.75zM12.25 16h-.5c-.96 0-1.75-.79-1.75-1.75v-2.5c0-.96.79-1.75 1.75-1.75h.5c.96 0 1.75.79 1.75 1.75v2.5c0 .96-.79 1.75-1.75 1.75zm-.5-4.5a.25.25 0 00-.25.25v2.5c0 .14.11.25.25.25h.5c.14 0 .25-.11.25-.25v-2.5a.25.25 0 00-.25-.25zM17 16a.75.75 0 01-.75-.75v-4.5a.75.75 0 011.5 0v4.5c0 .41-.34.75-.75.75z"/>
    <path d="M18.25 11.5h-2.5a.75.75 0 010-1.5h2.5a.75.75 0 010 1.5zM22.25 24h-1.5a.75.75 0 01-.75-.75v-4.5c0-.41.34-.75.75-.75h1.5c.96 0 1.75.79 1.75 1.75v2.5c0 .96-.79 1.75-1.75 1.75zm-.75-1.5h.75c.14 0 .25-.11.25-.25v-2.5a.25.25 0 00-.25-.25h-.75zM.75 24a.75.75 0 01-.75-.75v-3.5C0 18.79.79 18 1.75 18h1.5a.75.75 0 010 1.5h-1.5a.25.25 0 00-.25.25v3.5c0 .41-.34.75-.75.75z"/>
    <path d="M3.25 22H.75a.75.75 0 010-1.5h2.5a.75.75 0 010 1.5zM18.25 24a.75.75 0 01-.66-.39l-1.09-1.97v1.6a.75.75 0 01-1.5.01v-4.5a.75.75 0 011.4-.36l1.1 1.97v-1.61a.75.75 0 011.5 0v4.5a.75.75 0 01-.75.75zM7.25 24h-.5C5.79 24 5 23.21 5 22.25v-2.5c0-.96.79-1.75 1.75-1.75h.5c.96 0 1.75.79 1.75 1.75v2.5C9 23.21 8.21 24 7.25 24zm-.5-4.5a.25.25 0 00-.25.25v2.5c0 .14.11.25.25.25h.5c.14 0 .25-.11.25-.25v-2.5a.25.25 0 00-.25-.25zM12.25 24h-.5c-.96 0-1.75-.79-1.75-1.75v-3.5a.75.75 0 011.5 0v3.5c0 .14.11.25.25.25h.5c.14 0 .25-.11.25-.25v-3.5a.75.75 0 011.5 0v3.5c0 .96-.79 1.75-1.75 1.75zM23.25 5H.75a.75.75 0 010-1.5h22.5a.75.75 0 010 1.5z"/>
</svg>
