<svg xmlns="http://www.w3.org/2000/svg" viewBox="0 0 512 512"><path d="M480 0H112a16 16 0 00-16 16v456c0 22-18 40-40 40h400c22 0 40-18 40-40V16a16 16 0 00-16-16z" fill="#e2e7f0"/><path d="M32 144a16 16 0 00-16 16v312a40 40 0 0080 0V144H32z" fill="#c9d5e3"/><path d="M136 176h136a8 8 0 018 8v96a8 8 0 01-8 8H136a8 8 0 01-8-8v-96a8 8 0 018-8z" fill="#f6b545"/><g fill="#4c9cd6"><path d="M136 328h56a8 8 0 018 8v96a8 8 0 01-8 8h-56a8 8 0 01-8-8v-96a8 8 0 018-8zM400 328h56a8 8 0 018 8v96a8 8 0 01-8 8h-56a8 8 0 01-8-8v-96a8 8 0 018-8z"/></g><path d="M376 192h-64a8 8 0 010-16h64a8 8 0 010 16z" fill="#123247"/><path d="M456 224H312a8 8 0 010-16h144a8 8 0 010 16z" fill="#576d7e"/><path d="M456 128H136a8 8 0 010-16h320a8 8 0 010 16z" fill="#c9d5e3"/><g fill="#576d7e"><path d="M456 256H312a8 8 0 010-16h144a8 8 0 010 16zM456 288H312a8 8 0 010-16h144a8 8 0 010 16z"/></g><path d="M288 344h-56a8 8 0 010-16h56a8 8 0 010 16z" fill="#123247"/><g fill="#576d7e"><path d="M360 376H232a8 8 0 010-16h128a8 8 0 010 16zM360 408H232a8 8 0 010-16h128a8 8 0 010 16zM360 440H232a8 8 0 010-16h128a8 8 0 010 16z"/></g><path d="M480 32v440a24 24 0 01-24 24H142.6a236 236 0 00-74.2 14c-4 1.3-8.2 2-12.4 2h400c22 0 40-18 40-40V16a16 16 0 00-16 16z" fill="#c9d5e3"/><path d="M216 256c-27.4 6-47.4-30.6-64-40a29.2 29.2 0 00-24 0v64a8 8 0 008 8h136a8 8 0 008-8v-57c-19.5 1-40 27.7-64 33z" fill="#f19920"/><g fill="#3689c9"><circle cx="164" cy="372" r="20"/><circle cx="428" cy="372" r="20"/><path d="M428 397.4a65.5 65.5 0 00-36 10V432a8 8 0 008 8h56a8 8 0 008-8v-24.6a65.5 65.5 0 00-36-10zM164 397.4a65.5 65.5 0 00-36 10V432a8 8 0 008 8h56a8 8 0 008-8v-24.6a65.5 65.5 0 00-36-10z"/></g><g fill="#576d7e"><path d="M184 40a4.6 4.6 0 014.8-5.7c2.3 0 4.4 1 5.7 2.8L221 70.3v-31c0-2.8 2.2-5.2 5-5.5a6 6 0 015.8 5.6v45c.1 2.7-1.7 5-4.3 5.6a8 8 0 01-6.5-2.8l-26.5-33.7v31a5 5 0 01-5 5.5c-3 0-5.4-2.2-5.5-5.1V40zM250.2 90c-2.7 0-4.9-2.1-5-4.8V39.5c0-2.7 2.2-4.9 4.9-5H279a5.2 5.2 0 110 10.5h-23v12h20.2a5.3 5.3 0 110 10.4H256v12h24a5.3 5.3 0 110 10.5h-29.8v.1zM352 70.9l12-33a5.2 5.2 0 119.6 3.5l-16 43c-1.4 4.6-2.8 6-5.5 6a6 6 0 01-5.4-4.7l-13.9-32L320 85.2c-.5 2.8-2.8 5-5.7 5.3a6.2 6.2 0 01-5.5-5.5L293 41.4a5.2 5.2 0 119.9-3.6l11.8 33 14.2-33a4.6 4.6 0 019 0l14.1 33zM381.7 46.6C383.5 31 407 28.2 418 36.7a4.7 4.7 0 11-5.1 8c-6-3.7-19.4-5.5-21 2.8-2.2 13.1 32.6 5.6 32 27-.8 21.3-30.2 20.9-41.2 11.7a6 6 0 01-1.1-8 4.7 4.7 0 017.1-.6c6.6 4.5 23.5 8 24.7-3.5-1-11.9-34.3-4.7-31.8-27.5z"/></g><path d="M96 160a16 16 0 00-16 16v256a48 48 0 01-48 48 10 10 0 00-8 16 40 40 0 0071.2-16c.6-3.2.9-6.4.8-9.6V160z" fill="#b0c4d9"/></svg>
